<svg xmlns="http://www.w3.org/2000/svg" xmlns:xlink="http://www.w3.org/1999/xlink" width="18286.6" height="8653.269" viewBox="0 0 172 172">
  <defs>
    <filter id="Rectangle_268" x="56.201" y="0" width="73.252" height="136.876" filterUnits="userSpaceOnUse">
      <feOffset dy="3" input="SourceAlpha"/>
      <feGaussianBlur stdDeviation="3" result="blur"/>
      <feFlood flood-opacity="0.161"/>
      <feComposite operator="in" in2="blur"/>
      <feComposite in="SourceGraphic"/>
    </filter>
    <clipPath id="clip-path">
      <rect id="Rectangle_225" data-name="Rectangle 225" width="50.229" height="105.482" fill="#fff" stroke="#707070" stroke-width="1"/>
    </clipPath>
    <clipPath id="clip-path-2">
      <path id="Combined_Shape" data-name="Combined Shape" d="M5.4,12.958a.544.544,0,0,1-.3-.091c-.082-.056-.154-.106-.225-.158-.177-.127-.369-.273-.571-.434A16.763,16.763,0,0,1,2.577,10.7C.867,8.891,0,7.109,0,5.4a5.4,5.4,0,1,1,10.8,0c0,1.71-.867,3.492-2.578,5.3a16.753,16.753,0,0,1-1.726,1.578c-.193.154-.385.3-.571.434-.113.082-.192.136-.226.158A.54.54,0,0,1,5.4,12.958ZM5.4,1.08A4.324,4.324,0,0,0,1.08,5.4,6.926,6.926,0,0,0,3.361,9.954,15.7,15.7,0,0,0,4.976,11.43c.147.117.289.226.423.325.136-.1.278-.209.423-.325A15.734,15.734,0,0,0,7.436,9.954,6.925,6.925,0,0,0,9.718,5.4,4.324,4.324,0,0,0,5.4,1.08Zm0,6.478A2.159,2.159,0,1,1,7.559,5.4,2.162,2.162,0,0,1,5.4,7.559Zm0-3.24A1.08,1.08,0,1,0,6.478,5.4,1.081,1.081,0,0,0,5.4,4.319Z" transform="translate(0)" fill="#472ad6"/>
    </clipPath>
  </defs>
  <g id="Illustration" transform="translate(-103.4 -18.731)">
    <ellipse id="Ellipse_76" data-name="Ellipse 76" cx="76.6" cy="76.6" rx="76.6" ry="76.6" transform="translate(103.4 31.541)" fill="#8774e4"/>
    <g id="Groupe_79" data-name="Groupe 79" transform="translate(118.14 24.731)">
      <rect id="Rectangle_272" data-name="Rectangle 272" width="7.534" height="16.743" transform="translate(47.21 58.713)" fill="#f8d6b3"/>
      <path id="Tracé_61" data-name="Tracé 61" d="M-20288.561-3016.536s2.932-.579,4.354.83,2.541,5.616-4.51,9.608S-20288.561-3016.536-20288.561-3016.536Z" transform="translate(20392.66 3045.407)" fill="#f8d6b3"/>
      <path id="Tracé_61_-_Contour" data-name="Tracé 61 - Contour" d="M-20287.178-3017.154a4.745,4.745,0,0,1,3.322,1.092,4.486,4.486,0,0,1,1.162,3.75c-.223,1.667-1.406,4.174-5.777,6.648a4.783,4.783,0,0,1-2.223.763,1.446,1.446,0,0,1-1.3-.687c-.629-1.017-.309-3.164.98-6.564.912-2.407,2-4.586,2.008-4.608l.109-.22.24-.047A8.378,8.378,0,0,1-20287.178-3017.154Zm-3.516,11.253a3.827,3.827,0,0,0,1.73-.633c4.012-2.272,5.084-4.468,5.277-5.911a3.473,3.473,0,0,0-.873-2.907,3.81,3.81,0,0,0-2.619-.8,7.99,7.99,0,0,0-1.049.071c-.3.615-1.133,2.381-1.857,4.292-1.566,4.139-1.264,5.349-1.061,5.677A.458.458,0,0,0-20290.693-3005.9Z" transform="translate(20392.66 3045.407)" fill="#f8d6b3"/>
      <path id="Tracé_62" data-name="Tracé 62" d="M-20292.324-2995.855s14.049,1.957,13.521,7.973-13.521,4.117-13.521,4.117Z" transform="translate(20392.744 3042.02)" fill="#f8d6b3"/>
      <path id="Tracé_62_-_Contour" data-name="Tracé 62 - Contour" d="M-20292.824-2996.429l.568.079a39.445,39.445,0,0,1,7.059,1.755,16.2,16.2,0,0,1,4.822,2.544,4.851,4.851,0,0,1,2.07,4.212c-.162,1.859-1.371,3.208-3.594,4.01a18.242,18.242,0,0,1-6.064.848,33.852,33.852,0,0,1-4.434-.289l-.428-.062Zm4.861,12.449a17.286,17.286,0,0,0,5.725-.788c1.85-.667,2.811-1.7,2.938-3.157.244-2.791-3.256-4.655-6.234-5.728a38.986,38.986,0,0,0-6.289-1.615v11.063A34.533,34.533,0,0,0-20287.963-2983.98Z" transform="translate(20392.744 3042.02)" fill="#f8d6b3"/>
      <path id="Tracé_63" data-name="Tracé 63" d="M-20292.41-2974.847s13.434,2.745,13.316,6.658-3.59,7.009-14.047,4.585S-20292.41-2974.847-20292.41-2974.847Z" transform="translate(20393.604 3038.599)" fill="#f8d6b3"/>
      <path id="Tracé_63_-_Contour" data-name="Tracé 63 - Contour" d="M-20292.537-2975.384l.227.046a59.011,59.011,0,0,1,6.768,1.88,22.5,22.5,0,0,1,4.689,2.158c1.531.995,2.291,2.046,2.26,3.125a5.487,5.487,0,0,1-1.943,4.2c-1.383,1.147-3.441,1.728-6.119,1.728a29.829,29.829,0,0,1-6.6-.87c-2.791-.647-4.4-1.822-4.77-3.493-.359-1.6.441-3.557,2.381-5.8a23.62,23.62,0,0,1,2.924-2.827Zm5.881,12.136a8.494,8.494,0,0,0,5.482-1.5,4.455,4.455,0,0,0,1.58-3.458c.041-1.342-2.189-2.872-6.279-4.31a58.069,58.069,0,0,0-6.406-1.794,23.182,23.182,0,0,0-2.615,2.56c-1.18,1.368-2.508,3.332-2.152,4.921.281,1.263,1.635,2.184,4.02,2.736A28.852,28.852,0,0,0-20286.656-2963.247Z" transform="translate(20393.604 3038.599)" fill="#f8d6b3"/>
      <path id="Tracé_64" data-name="Tracé 64" d="M-20296.295-2955.086s14.887,4.366,15.535,7.914-5.4,6.98-13.346,4.264S-20296.295-2955.086-20296.295-2955.086Z" transform="translate(20393.719 3035.381)" fill="#f8d6b3"/>
      <path id="Tracé_64_-_Contour" data-name="Tracé 64 - Contour" d="M-20296.523-2955.674l.369.108c.037.011,3.789,1.116,7.57,2.642,5.291,2.135,8.01,3.987,8.316,5.661a3.7,3.7,0,0,1-.906,3.086c-1.434,1.72-4.186,2.746-7.363,2.746a17.744,17.744,0,0,1-5.73-1.005,6.233,6.233,0,0,1-4.158-3.735c-1.43-3.95,1.574-8.965,1.7-9.176Zm7.986,13.244c2.885,0,5.35-.892,6.594-2.387a2.729,2.729,0,0,0,.691-2.266c-.082-.456-.578-1.241-2.467-2.4a36.647,36.647,0,0,0-5.232-2.516c-3.041-1.228-6.064-2.18-7.105-2.5-.621,1.149-2.5,5.023-1.428,7.984a5.289,5.289,0,0,0,3.541,3.126A16.736,16.736,0,0,0-20288.537-2942.43Z" transform="translate(20393.719 3035.381)" fill="#f8d6b3"/>
      <path id="Tracé_60" data-name="Tracé 60" d="M-20344.016-2928.372s-10.266,9.286-12.338,10.858-17.6,27.607-17.6,27.607l-30.795-14.313s18.281-33.219,20.115-39,1.42-5.286,1.119-13.316,3.828-20.648,5.289-24.682a90.754,90.754,0,0,0,3.227-9.483c1.252-4.563.682-4.645,1.627-7.917s1.256-2.686,1.865-4.916c.266-.968.906-4.06,1.09-4.532a56.6,56.6,0,0,1-1-5.7c-.209-3.721-.35-4.22-.152-4.412s3.086-.01,5.492,1.594,4.811,7.956,7.441,11.693a8.321,8.321,0,0,1,1.1,7.5l-.848,4.885s-3.457,8.084-4.254,11.279,3.807,14.577,3.807,14.577Z" transform="translate(20411.051 3045.664)" fill="#f8d6b3"/>
      <path id="Tracé_60_-_Contour" data-name="Tracé 60 - Contour" d="M-20373.75-2889.263l-.41-.19-31.279-14.539.258-.469c.182-.332,18.277-33.242,20.076-38.909,1.492-4.705,1.473-5.082,1.248-9.694-.047-.973-.1-2.076-.152-3.453-.334-8.977,4.74-23.271,5.318-24.871.4-1.115.736-1.993,1.029-2.767a60.319,60.319,0,0,0,2.186-6.678,29.014,29.014,0,0,0,.938-4.551,19.694,19.694,0,0,1,.691-3.373,14.991,14.991,0,0,1,1.156-3.06,8.216,8.216,0,0,0,.707-1.849c.113-.414.3-1.258.49-2.074.273-1.21.459-2.017.574-2.383-.027-.142-.092-.428-.152-.707a36.045,36.045,0,0,1-.84-4.9c-.068-1.238-.131-2.112-.176-2.75s-.072-1.032-.07-1.29a.982.982,0,0,1,.246-.759,1.02,1.02,0,0,1,.764-.2,10.722,10.722,0,0,1,5.354,1.74c1.572,1.048,3.051,3.815,4.617,6.744a51.181,51.181,0,0,0,2.955,5.077,8.841,8.841,0,0,1,1.629,5.46,8.27,8.27,0,0,1-.451,2.465l-.85,4.894-.023.053c-.033.081-3.449,8.084-4.229,11.2-.621,2.491,2.521,11.145,3.785,14.269l0,.007,14.932,38.589-.254.231c-.42.38-10.307,9.319-12.371,10.885-.457.346-2.291,2.658-9.453,14.256-4.09,6.625-7.977,13.143-8.016,13.208Zm-30.3-15.185,29.9,13.9c.9-1.5,4.27-7.127,7.791-12.833,8.33-13.49,9.361-14.272,9.7-14.529,1.852-1.4,10.453-9.157,12.051-10.6l-14.684-37.945c-.051-.125-1.187-2.951-2.213-6.12-1.424-4.4-1.967-7.345-1.613-8.762a117.559,117.559,0,0,1,4.256-11.3l.846-4.88.021-.05a7.279,7.279,0,0,0,.4-2.221,7.738,7.738,0,0,0-1.447-4.807,51.818,51.818,0,0,1-3.021-5.182c-1.437-2.692-2.926-5.475-4.289-6.384a9.789,9.789,0,0,0-4.8-1.572h-.012c0,.236.033.656.07,1.182.045.641.107,1.519.178,2.764a35.429,35.429,0,0,0,.814,4.744c.061.269.107.481.139.636a.9.9,0,0,1,0,.574c-.1.317-.354,1.421-.557,2.318-.2.865-.381,1.682-.5,2.117a9.2,9.2,0,0,1-.779,2.036,14.155,14.155,0,0,0-1.088,2.886,18.66,18.66,0,0,0-.66,3.225,29.927,29.927,0,0,1-.965,4.685,61.445,61.445,0,0,1-2.215,6.768c-.293.771-.623,1.645-1.023,2.753-.574,1.582-5.588,15.706-5.26,24.493.051,1.371.105,2.471.152,3.441.223,4.58.25,5.168-1.295,10.044C-20385.883-2937.615-20401.73-2908.669-20404.049-2904.448Z" transform="translate(20411.051 3045.664)" fill="#f8d6b3"/>
      <path id="Tracé_67" data-name="Tracé 67" transform="translate(18271.859 8647.269)" fill="#cbaf92"/>
      <g transform="matrix(1, 0, 0, 1, -14.74, -6)" filter="url(#Rectangle_268)">
        <rect id="Rectangle_268-2" data-name="Rectangle 268" width="55.252" height="118.876" rx="5" transform="translate(65.2 6)" fill="#091625"/>
      </g>
      <rect id="Rectangle_269" data-name="Rectangle 269" width="50.229" height="105.482" transform="translate(52.973 6.697)" fill="#f4f6f8"/>
      <rect id="Rectangle_270" data-name="Rectangle 270" width="15.069" height="1.674" rx="0.837" transform="translate(70.554 2.511)" fill="#3f4a55"/>
      <g id="Groupe_de_masques_31" data-name="Groupe de masques 31" transform="translate(52.944 6.697)" clip-path="url(#clip-path)">
        <g id="Groupe_77" data-name="Groupe 77" transform="translate(-7.94 5.162)">
          <path id="Path" d="M85.872,20.35c.06-1.231-2.171.278-2.847-.944-2.266-4.088-12.22-1.246-12.46-6.437-.3-6.519-4.812.5-5.1-.512a10.728,10.728,0,0,0-1.044-2.381c-1.386-3.1-5.557-4.171-5.557-4.171.268-3.988-3.567-1.24-4.445-4.944C53.914-1.187,48.621.715,47.2,2.3c-1.339,1.494-1.65,4.365.65,4.6,0,0-.745,2.911-2.517,3.536-11.4,4.021-9.223,6.688-9.242,6.694-11.88,2.983-7.353-5.639-14.579-4.409,0,0,3.452,13.4,2.119,11.863-1.541-1.783-7.89.6-8.784.564-.761-.025-2.832-7.712-5.823-3.856-1.649,2.123-3.449.21-6.613.973C-3.56,23.7,4.675,27.44,1.779,27.928c-4.763.8,1.546,3.5,1.546,3.5A29.554,29.554,0,0,1,14.6,35.64c.5.647,3.162,4.466,3.351,4.572.112.063-.227,7.6,5.465,9.145,1.5.406-1.984,29.563-6.341,30.157-2.967.4,2.4,1.981,1.8,2.966-1.174,1.922.906.833,2.246,1.846,3.1,2.347,6.342,2.138,6.865,2.689,3.87,4.084,12.536-2.389,13.316,3.393.313,2.323,3.435.229,4.081.552s8.566,3.392,10.7.876c.109-.128-5.131-13.8,10.882-10.7,3.047.59,15.772,7.09,16.977,2.346.094-.371,10.8-9.907,7.41-10.488-10.683-1.827-.912-6.759-5.97-7.218-6.346-.575,2.2-5.03,2.235-5.077,1.039-1.5-2.66-2.729-2.792-4.009-.078-.745,2.719-2.57-.335-6.626-1.2-1.59-5.941-.829-5.941-.829S86.241,38.787,86.306,38.8c5.912,1.3,2.65-10.422,6.172-13.172C99.546,20.1,85.852,20.736,85.872,20.35Z" fill="#dde1e6"/>
          <ellipse id="Ellipse_62" data-name="Ellipse 62" cx="2.899" cy="0.928" rx="2.899" ry="0.928" transform="translate(62.466 56.351)" fill="#788089"/>
          <ellipse id="Ellipse_66" data-name="Ellipse 66" cx="2.899" cy="0.928" rx="2.899" ry="0.928" transform="translate(24.059 80.523)" fill="#788089"/>
          <ellipse id="Ellipse_67" data-name="Ellipse 67" cx="2.899" cy="0.928" rx="2.899" ry="0.928" transform="translate(53.21 45.269)" fill="#788089"/>
          <ellipse id="Ellipse_64" data-name="Ellipse 64" cx="2.899" cy="0.928" rx="2.899" ry="0.928" transform="translate(21.141 31.106)" fill="#788089"/>
          <g id="Icône_Mapmaker" data-name="Icône Mapmaker" transform="translate(56.129 41.167)">
            <rect id="Rectangle_173" data-name="Rectangle 173" width="18.511" height="18.511" fill="none"/>
            <g id="Groupe_6" data-name="Groupe 6" transform="translate(3.857 3.085)">
              <path id="Combined_Shape-5" data-name="Combined Shape" d="M5.4,12.958a.544.544,0,0,1-.3-.091c-.082-.056-.154-.106-.225-.158-.177-.127-.369-.273-.571-.434A16.763,16.763,0,0,1,2.577,10.7C.867,8.891,0,7.109,0,5.4a5.4,5.4,0,1,1,10.8,0c0,1.71-.867,3.492-2.578,5.3a16.753,16.753,0,0,1-1.726,1.578c-.193.154-.385.3-.571.434-.113.082-.192.136-.226.158A.54.54,0,0,1,5.4,12.958ZM5.4,1.08A4.324,4.324,0,0,0,1.08,5.4,6.926,6.926,0,0,0,3.361,9.954,15.7,15.7,0,0,0,4.976,11.43c.147.117.289.226.423.325.136-.1.278-.209.423-.325A15.734,15.734,0,0,0,7.436,9.954,6.925,6.925,0,0,0,9.718,5.4,4.324,4.324,0,0,0,5.4,1.08Zm0,6.478A2.159,2.159,0,1,1,7.559,5.4,2.162,2.162,0,0,1,5.4,7.559Zm0-3.24A1.08,1.08,0,1,0,6.478,5.4,1.081,1.081,0,0,0,5.4,4.319Z" transform="translate(0 0)" fill="#472ad6"/>
            </g>
          </g>
          <g id="Icône_Mapmaker-2" data-name="Icône Mapmaker" transform="translate(17.722 65.338)">
            <rect id="Rectangle_173-2" data-name="Rectangle 173" width="18.511" height="18.511" fill="none"/>
            <g id="Groupe_6-2" data-name="Groupe 6" transform="translate(3.857 3.085)">
              <path id="Combined_Shape-6" data-name="Combined Shape" d="M5.4,12.958a.544.544,0,0,1-.3-.091c-.082-.056-.154-.106-.225-.158-.177-.127-.369-.273-.571-.434A16.763,16.763,0,0,1,2.577,10.7C.867,8.891,0,7.109,0,5.4a5.4,5.4,0,1,1,10.8,0c0,1.71-.867,3.492-2.578,5.3a16.753,16.753,0,0,1-1.726,1.578c-.193.154-.385.3-.571.434-.113.082-.192.136-.226.158A.54.54,0,0,1,5.4,12.958ZM5.4,1.08A4.324,4.324,0,0,0,1.08,5.4,6.926,6.926,0,0,0,3.361,9.954,15.7,15.7,0,0,0,4.976,11.43c.147.117.289.226.423.325.136-.1.278-.209.423-.325A15.734,15.734,0,0,0,7.436,9.954,6.925,6.925,0,0,0,9.718,5.4,4.324,4.324,0,0,0,5.4,1.08Zm0,6.478A2.159,2.159,0,1,1,7.559,5.4,2.162,2.162,0,0,1,5.4,7.559Zm0-3.24A1.08,1.08,0,1,0,6.478,5.4,1.081,1.081,0,0,0,5.4,4.319Z" transform="translate(0 0)" fill="#472ad6"/>
            </g>
          </g>
          <g id="Icône_Mapmaker-3" data-name="Icône Mapmaker" transform="translate(46.873 30.084)">
            <rect id="Rectangle_173-3" data-name="Rectangle 173" width="18.511" height="18.511" fill="none"/>
            <g id="Groupe_6-3" data-name="Groupe 6" transform="translate(3.857 3.085)">
              <path id="Combined_Shape-7" data-name="Combined Shape" d="M5.4,12.958a.544.544,0,0,1-.3-.091c-.082-.056-.154-.106-.225-.158-.177-.127-.369-.273-.571-.434A16.763,16.763,0,0,1,2.577,10.7C.867,8.891,0,7.109,0,5.4a5.4,5.4,0,1,1,10.8,0c0,1.71-.867,3.492-2.578,5.3a16.753,16.753,0,0,1-1.726,1.578c-.193.154-.385.3-.571.434-.113.082-.192.136-.226.158A.54.54,0,0,1,5.4,12.958ZM5.4,1.08A4.324,4.324,0,0,0,1.08,5.4,6.926,6.926,0,0,0,3.361,9.954,15.7,15.7,0,0,0,4.976,11.43c.147.117.289.226.423.325.136-.1.278-.209.423-.325A15.734,15.734,0,0,0,7.436,9.954,6.925,6.925,0,0,0,9.718,5.4,4.324,4.324,0,0,0,5.4,1.08Zm0,6.478A2.159,2.159,0,1,1,7.559,5.4,2.162,2.162,0,0,1,5.4,7.559Zm0-3.24A1.08,1.08,0,1,0,6.478,5.4,1.081,1.081,0,0,0,5.4,4.319Z" transform="translate(0 0)" fill="#472ad6"/>
            </g>
          </g>
          <g id="Icône_Mapmaker-4" data-name="Icône Mapmaker" transform="translate(14.804 15.922)">
            <rect id="Rectangle_173-4" data-name="Rectangle 173" width="18.511" height="18.511" fill="none"/>
            <g id="Groupe_6-4" data-name="Groupe 6" transform="translate(3.857 3.085)">
              <path id="Combined_Shape-8" data-name="Combined Shape" d="M5.4,12.958a.544.544,0,0,1-.3-.091c-.082-.056-.154-.106-.225-.158-.177-.127-.369-.273-.571-.434A16.763,16.763,0,0,1,2.577,10.7C.867,8.891,0,7.109,0,5.4a5.4,5.4,0,1,1,10.8,0c0,1.71-.867,3.492-2.578,5.3a16.753,16.753,0,0,1-1.726,1.578c-.193.154-.385.3-.571.434-.113.082-.192.136-.226.158A.54.54,0,0,1,5.4,12.958ZM5.4,1.08A4.324,4.324,0,0,0,1.08,5.4,6.926,6.926,0,0,0,3.361,9.954,15.7,15.7,0,0,0,4.976,11.43c.147.117.289.226.423.325.136-.1.278-.209.423-.325A15.734,15.734,0,0,0,7.436,9.954,6.925,6.925,0,0,0,9.718,5.4,4.324,4.324,0,0,0,5.4,1.08Zm0,6.478A2.159,2.159,0,1,1,7.559,5.4,2.162,2.162,0,0,1,5.4,7.559Zm0-3.24A1.08,1.08,0,1,0,6.478,5.4,1.081,1.081,0,0,0,5.4,4.319Z" transform="translate(0 0)" fill="#472ad6"/>
            </g>
          </g>
        </g>
      </g>
      <path id="Tracé_65" data-name="Tracé 65" d="M.406,1.487c1.873-1.574,46.039-2.352,48.555,0S45.612,33.3,45.612,33.3H3.754S-1.467,3.06.406,1.487Z" transform="translate(14.073 110.66) rotate(25)" fill="#3c23b6"/>
      <path id="Tracé_65_-_Contour" data-name="Tracé 65 - Contour" d="M27.786,1c-6.046,0-12.441.144-17.544.4-6.712.331-8.618.714-9.121.86-.1.391-.25,1.662.075,5.553.227,2.729.651,6.318,1.26,10.669C3.288,24.427,4.245,30.2,4.6,32.3h40.19c.4-2.078,1.5-7.875,2.4-13.854.66-4.353,1.092-7.944,1.282-10.673.305-4.366-.1-5.37-.2-5.55-.236-.129-1.42-.578-6.765-.9C37.924,1.113,33.179,1,27.786,1m0-1c10.4,0,20.038.424,21.175,1.487C51.477,3.839,45.612,33.3,45.612,33.3H3.754S-1.467,3.06.406,1.487C1.432.624,15.169,0,27.786,0Z" transform="translate(14.073 110.66) rotate(25)" fill="#3c23b6"/>
      <path id="Tracé_66" data-name="Tracé 66" d="M0,0H41.333L9.317,105.482H0Z" transform="translate(52.973 6.697)" fill="#f4f6f8" opacity="0.4"/>
    </g>
  </g>
</svg>
